<?xml version="1.0" encoding="UTF-8"?>
<!DOCTYPE svg PUBLIC "-//W3C//DTD SVG 1.1//EN" "http://www.w3.org/Graphics/SVG/1.1/DTD/svg11.dtd">
<!-- Creator: CorelDRAW 2018 (64-Bit Evaluation Version) -->
<svg xmlns="http://www.w3.org/2000/svg" xml:space="preserve" width="143mm" height="59.553mm" version="1.1" style="shape-rendering:geometricPrecision; text-rendering:geometricPrecision; image-rendering:optimizeQuality; fill-rule:evenodd; clip-rule:evenodd"
viewBox="0 0 14300 5955.3"
 xmlns:xlink="http://www.w3.org/1999/xlink">
 <defs>
  <style type="text/css">
   <![CDATA[
    .fil0 {fill:#E80000}
    .fil1 {fill:white}
   ]]>
  </style>
 </defs>
 <g id="Layer_x0020_1">
  <metadata id="CorelCorpID_0Corel-Layer"/>
  <g id="Group_x0020_3">
   <g id="Group_x0020_1_x0020_copy">
    <g>
     <path class="fil0" d="M6353.7 2905.65l-8.91 115.17c-4.55,40.81 -3.73,80.06 -10.4,122.87 -11.6,74.5 -13.92,158.52 -25.69,236.25 -2.14,14.06 -4.78,34.46 -5.54,45.01 -8.67,120.13 -35.14,301.97 -51.01,422.34 -7.94,60.22 -13.83,126.01 -23.56,187.83 -11.51,73.1 -40.36,311.44 -40.36,382.43l144.3 -16.56c28.35,-5.11 46.94,-2.97 75.4,-7.34 13.57,-2.09 17.12,-3.39 37.83,-3.54l340.01 -32.29c4.24,-50.86 16.66,-107.61 25.72,-158.12 26.02,-145.06 43.61,-292.25 68.97,-436.54 1.7,-9.66 6.44,-38.76 6.44,-44.11l4.59 0c0,35.23 145.03,328.94 157.87,352.25 8.1,14.68 11.78,25.63 20.45,39.3 7.96,12.55 12.35,22.3 20.27,34.89l69.25 105.39c13.54,17.59 34.35,52.85 53.92,60.98 0.58,0.28 1.5,0.21 1.74,0.87 0.25,0.72 1.67,0.53 2.05,0.53 52.76,-0.15 106.95,-12.44 161.71,-15.16 55.78,-2.77 116.13,-16.89 169.87,-18.58 57.55,-1.8 176.58,-17.81 216.14,-18.28 24.38,-0.29 26.01,-4.06 45.89,-4.67 33.47,-1.05 54.49,-4.45 92.08,-4.45 17.16,-32.44 35.86,-227.8 41.67,-280.02l4.57 -45.97c1.04,-9.38 3.22,-27.15 5.27,-40.69 1.32,-8.73 3.17,-27.51 5.46,-40.5l25.45 -227.31c1.02,-9.17 -0.23,-16.68 1.24,-26.33 3.9,-25.4 5.31,-54.06 8.57,-83.33 2.33,-20.86 8.87,-60.63 9.03,-82.89 0.84,-112.09 23.03,-233.03 27.25,-349.58l13.97 -174.45 -73.54 4.6c-25.98,-0.02 -52.38,-0.48 -78.3,-0.16l-73.39 4.75c-25.42,-0.01 -53.22,-1.09 -78.32,-0.18l-225.05 9.38c-11.21,-0.01 -26.08,-0.87 -36.84,-0.08 -17.54,1.28 -14.42,4.67 -36.7,4.67 0,15.49 1.16,35.74 0.08,50.62l-8.35 92.76c-2.83,17.71 0.9,36.11 -1.19,53.96l-9.11 96.59c-0.56,15.56 1.68,35.45 -0.09,50.46 -6.65,56.65 -13.01,198.71 -20.89,241.04l-23.99 185.79c-29.03,-40.77 -158.02,-315.51 -183.2,-368.28l-35.45 -79.45c-7.95,-19.84 -18.05,-34.49 -25.17,-52.96 -4.68,-12.13 -5.63,-13.85 -11.39,-25.38l-131.7 -295.7 -159.07 6.41c-26.71,4.98 -51.84,1.57 -80.13,2.6l-82.65 4.69c-74.57,-0.03 -158.45,14.26 -234.32,13.88l-82.75 4.59z"/>
     <path class="fil0" d="M11515.57 3305.45c64.91,-31.13 200.31,-14.87 270.15,51.6 73.99,70.43 126.4,241.23 -7.14,326.24 -73.97,47.09 -163.07,44.94 -244.62,44.94l-9.23 -156.2c0.09,-18.4 -0.04,-36.8 0.05,-55.2 0.12,-25.57 -3.35,-32.13 -4.68,-50.46 -1.19,-16.26 0.07,-38.31 0.07,-55.22 0,-40.87 -0.13,-70.86 -4.6,-105.7zm-588.35 -330.87l-0.16 138.03c0.28,22.65 4.2,20.67 4.94,41.01 1.02,28 -0.1,59.16 -0.19,87.49 -0.1,34.29 4.71,48.44 4.61,82.72 -0.2,64.11 1.42,143.26 8.92,207.07l0.18 87.13c-0.01,23.21 3.5,23.94 4.75,41.2 4.18,57.37 0.28,112.89 4.46,170.18l4.51 82.8c0.27,22.54 4.79,26.96 4.75,82.56 -0.02,34.7 4.78,52.43 4.64,82.68 -0.14,29.12 0.01,58.24 -0.04,87.36 -0.06,34.94 4.76,50.06 4.61,82.7 -0.14,29.1 -0.01,58.23 -0.01,87.33l569.96 50.55c10.79,-46.32 4.6,-271.13 4.6,-335.47 57.27,0 98.08,4.58 156.28,4.58 49.16,73.42 124.39,219.34 183.87,307.9 6.44,9.6 8.82,14.61 15.61,25.75 10.77,17.64 19.83,32.09 30.34,47.79l592.95 0 -323.65 -416.29c-8.09,-12.09 -14.32,-19.36 -21.08,-29.47 20.34,-5.43 78.45,-41.42 99.36,-56.9 58.46,-43.28 114.68,-104.37 137.98,-174.55 42.23,-127.22 28.29,-298.19 -17.26,-420.56l-45.25 -97.22c-6.39,-10.97 -10.34,-17.44 -17.63,-28.33 -31.3,-46.76 -63.86,-87 -103.17,-126.63l-77.91 -64.56c-81.37,-53.83 -157.84,-95.87 -252.86,-119.44 -159.28,-39.52 -178.59,-37.7 -343.79,-37.7 -33.33,0 -61.41,-0.62 -88.26,3.66 -14.61,2.35 -30.28,0.86 -45.13,0.84 -23.19,-0.02 -24.1,3.6 -41.22,4.75 -133.69,9.01 -264.31,31.88 -390.19,74.04 -23.62,7.92 -51.18,14.72 -69.52,27z"/>
     <path class="fil0" d="M12490.03 3369.79c0,84.67 1.77,172.17 35.25,249.68 6.18,14.32 10.02,19.36 15.91,34.64 18.04,46.76 70.63,115.48 106.27,151.1l120.22 91.2 70.2 35.52c50.84,21.72 107.22,34.73 163.37,43.45 80.9,12.57 351.49,7.54 336.62,127.02 -8.07,64.92 -96.66,57.81 -149.17,57.81 -143.5,0 -315.02,-47.38 -449.91,-97.05 -30.27,-11.14 -112.19,-53.18 -129.25,-54.6l-11 329.06c-4.22,22.58 -7.38,65.33 -7.38,89.13 16.8,3.91 28.03,12.25 45.36,18.97l90.72 37.98c143.64,58.43 338.73,142.46 484.55,158.92 16.99,1.92 39.63,3.24 57.83,6.52l147.91 11.13c7.53,-0.67 11.75,-3.68 28.41,-3.91 169.39,-2.34 342.29,-56.33 435.04,-208.42 5.18,-8.49 6.77,-13.78 11.04,-21.14 4.91,-8.47 6.84,-8.9 12.35,-19.82 27.32,-54.19 40.52,-120.05 42.75,-188.64l0 -42.71c-3.45,-110.47 -33.16,-223.18 -76.55,-301.93 -101.68,-184.55 -300.41,-288.06 -511.8,-287.92 -76.75,0.04 -294.18,4.92 -294.18,-110.3 0,-116.44 366.2,-71.9 439.44,-53.32l141.53 37.73c17.94,5.01 30.57,10.6 48.76,11 0,-26.57 -4.77,-34.75 -4.62,-64.32 0.06,-10.34 0.57,-22.23 0.2,-32.37 -0.74,-20.15 -3.57,-14.39 -4.85,-31.91 -1.55,-21.2 2.23,-48.02 -0.2,-68.73 -6.63,-56.46 -8.85,-140.08 -8.83,-197.97 0.01,-26.38 -4.84,-34.66 -4.7,-64.23 0.11,-22.99 0.01,-45.97 0.01,-68.95 -136.98,-72.46 -373.57,-96.5 -519.4,-96.5 -157.53,0 -258.16,34.41 -380.05,97.97l-69.16 45.73c-109.43,83.62 -212.69,235.16 -212.69,380.18z"/>
     <path class="fil0" d="M4069.24 4762.22c25.51,-0.57 56.66,-9.71 81.73,-14.81 153.82,-31.26 351.41,-77.97 503.1,-103.61 18.21,-3.08 25.29,-3.94 43.01,-7.54 15.4,-3.13 27.81,-6.97 43.25,-7.32 0,-72.91 -3.67,-148.13 4.33,-216.25 1.54,-13.15 -0.06,-32.04 0.11,-45.84l23.07 -248.08c0.42,-35.3 18.46,-124.27 18.46,-160.76l87.39 -4.54c18.47,-1.24 8.97,-3.44 27.45,-4.72 8.63,-0.6 19.08,0.73 27.72,0.14 18.43,-1.28 9,-3.46 27.44,-4.74 10.07,-0.69 21.85,0.97 31.97,-0.2 13.73,-1.58 8.67,-3.82 27.67,-4.5 34.92,-1.25 84.79,-1.21 116.9,-7.21 37.77,-7.04 82.32,-2.75 117.7,-11 0,-31.79 12.78,-66.6 17.4,-92.89 6.06,-34.51 9.21,-60.18 16.59,-93.71 7.24,-32.86 12.11,-56.56 18.44,-91.85l16.52 -93.78c-19.88,0 -40.1,-0.41 -59.91,-0.15 -23.31,0.28 -27.96,4.91 -54.96,4.78 -39.84,-0.19 -79.71,-0.03 -119.55,-0.03 -44.72,0 -70.9,4.6 -114.91,4.58 -41.37,0 -82.74,0 -124.11,0 0,-18.3 5.73,-54.47 8.18,-69.94 3.93,-24.78 4.62,-51.39 10.07,-72.65 6.55,-25.59 14.51,-9.59 69.16,-13.57 17.19,-1.25 14.75,-4.59 36.54,-4.82 13.45,-0.15 27.35,1.35 40.6,-0.77l111.39 -8.12c21.85,-0.16 19.29,-3.56 36.55,-4.82 12.95,-0.93 28.56,1.09 41.51,0.15 17.17,-1.25 14.77,-4.57 36.54,-4.83 13.02,-0.16 28.98,1.15 41.6,0.23l73.63 -4.51c21.39,-0.27 19.41,-3.39 36.76,-4.61 29.15,-2.04 22.55,12.49 34.75,-47.98 28.39,-140.71 40.21,-258.84 61.18,-389.18 2.56,-15.93 4.71,-21.03 5.05,-36.31l-1121.55 0c-61.65,-0.12 -47.54,-5.59 -56.16,49.53 -8.93,57.05 -16.03,125.49 -25.5,181.31 -10.23,60.22 -17.4,119.85 -29,177.8l-76.7 433.42c-31.64,158.05 -62.02,350.96 -79.54,508.7 -11.89,106.93 -25.69,197.35 -27.11,312.95l-4.76 96.35 0 1.65 0 1.65 0 1.65 0 1.66 0 1.65 0 1.65 0 1.65 0 1.65 0 1.65 0 1.65 0 1.66 0 1.65 0 1.65 0 1.65 0 1.65 0 1.65 0 1.65 0 1.66 0 1.64 0 1.66 0 1.65 0 1.65 0 1.66 0 1.64 0 1.66 0 1.65 0 1.65 0 1.65 0 1.65 0 1.66 0 1.65 0 1.65 0 1.65 0 1.65 0 1.65 0 1.65 0 1.65 0 1.66 0 1.65 0 1.65 0 1.65 0 1.65 0 1.65 0 1.65 0 1.66 0 1.65 0 1.65 0 1.65 0 1.65 0 1.65 0 1.65 0 1.66 0 1.65 0 1.65 0 1.65 0 1.65 0 1.66 0 1.64 0 1.66 0 1.65 0 1.65 0 1.65 0 1.65 0 1.66z"/>
     <path class="fil0" d="M8711.7 4017.75l18.11 -142.74c3.14,-28.37 3.74,-48.82 4.7,-78.02 0.64,-19.31 7.04,-55.27 9.09,-73.63l9.33 -114.75c0.64,-20.6 4.27,-15.9 4.91,-36.45 1.69,-53.83 9.03,-100.49 9.03,-156.41 259.15,0 349.71,251.35 263.57,424.35 -10.13,20.35 -21.79,32.56 -33.72,49.01 -21.07,29 -61.48,54.33 -93.54,71.91 -58.67,32.17 -120.07,50.79 -191.48,56.73zm-542.38 -1020.19c0,58.72 -2.27,106.68 -4.41,165.62 -0.95,25.88 -4.88,21.17 -4.78,77.93l-27.31 482.8c-1.35,11.46 -0.19,29.09 -0.18,41.18l-8.36 120.31c-2.13,13.25 -0.62,27.15 -0.77,40.6l-14.87 201.12c-2.09,13.08 -3.87,17.15 -3.67,37.69l-4.52 82.99c-1.52,32.81 -22.02,27.29 78.06,27.29 87,0 159.18,-4.98 243.63,-4.58l408.14 -28.52c14.72,-2.22 39.63,-6.25 56.2,-8.14 76.63,-8.76 277.41,-44.55 358.43,-78.22 87.08,-36.18 134.16,-55.16 201,-116.14 16.75,-15.26 14.88,-7.64 30.63,-29.12l29.12 -35.22c114.69,-148.98 105.56,-397.34 44.08,-565.47l-63.96 -129.06c-14.2,-21.19 -24.68,-37.45 -39.43,-57.09 -58.32,-77.68 -146.51,-153.21 -232.03,-199.99 -12.17,-6.66 -22.58,-11.18 -33.77,-16.79 -57.74,-28.98 -152.73,-61.59 -217.08,-72.49 -218.6,-37 -459.81,-21.5 -672.74,28.44 -23.89,5.6 -40.82,7.94 -63.42,14.72 -19.52,5.86 -42.93,12.17 -57.99,20.14z"/>
     <path class="fil0" d="M9676.97 4275.09l252.88 4.53c17.52,1.27 11.76,4.12 31.92,4.85 23.59,0.86 49.83,-0.15 73.73,-0.18 52.11,-0.09 147.18,9.3 216.03,9.19l141.57 5.51c22.34,3.58 41.13,3.81 69.89,3.67 30.67,-0.15 39.73,4.78 68.89,4.64 99.06,-0.48 187.29,13.75 285.02,13.75l4.44 -69.09c0.29,-24.15 4.88,-19.13 4.76,-73.37 -0.07,-30.27 4.46,-44.91 4.75,-68.77l-0.16 -115.05 -170.14 -4.52c-17.52,-1.28 -11.76,-4.11 -31.92,-4.85 -23.62,-0.86 -49.79,0.18 -73.73,0.18l-206.84 -4.59c-55.93,0.01 -34.03,-1.7 -68.95,-4.6l4.6 -124.08c17.37,-1.44 15.13,-4.49 36.61,-4.75l331.44 0.49c33.18,-0.67 23.05,-11.54 22.62,-101.47 -0.15,-29.83 4.68,-44.57 4.63,-78.08l0 -151.65 -381.51 -4.6 9.19 -137.86c9.81,0 22.85,0.75 32.25,0.07 17.52,-1.28 11.76,-4.12 31.92,-4.85 22.21,-0.81 46.73,0.25 69.22,0.27 26.38,0.01 34.67,-4.85 64.25,-4.71l138 -4.48c26.38,0 34.67,-4.84 64.25,-4.7 51.83,0.25 85.98,-4.58 137.9,-4.58l4.6 -110.3c0,-39.82 0.03,-79.65 0,-119.47 -0.03,-41.98 4.6,-66.84 4.6,-110.3 -0.01,-39.82 0,-79.65 0,-119.48l-1167.51 0 -4.6 1038.58c0,120.39 -4.6,225.16 -4.6,344.65z"/>
     <path class="fil0" d="M5553.91 2974.58c0,69.12 -17.7,182.43 -18.32,234.44 -0.46,39.28 -35.94,307.81 -41.52,372.07 -12.9,148.74 -48.66,357.89 -59.69,510.17 -6.67,92.16 -21.72,191.84 -22.8,285.1l-4.75 133.11 276.12 -45.62c44.45,-8.98 94.66,-15.49 138.56,-22.31l141.49 -19.39c10.04,-18.97 45.13,-222.25 54.85,-271.44l107.91 -549.27c6.83,-33.64 11.73,-58.18 17.57,-92.72 4.83,-28.54 11.08,-63.83 16.97,-93.32l46.74 -284.15c7.33,-56.93 27.15,-134.63 27.15,-193.43l-128.86 4.43c-22.66,0.28 -20.68,4.2 -41.02,4.94 -13.47,0.49 -28.27,-0.85 -41.74,-0.36 -20.35,0.74 -18.36,4.66 -41.02,4.93 -13.81,0.17 -32.7,-1.43 -45.86,0.11 -83.57,9.81 -171.43,10.36 -253.26,13.34 -20.34,0.74 -18.36,4.65 -41.03,4.93l-87.49 4.44z"/>
    </g>
    <g>
     <path class="fil0" d="M4672.93 2368.38l-53.5 -2.94c-27.88,-5.2 -17.02,-1.79 -18.9,-53.58 -0.65,-17.91 -3.7,-14.01 -4.35,-31.91 -1.71,-46.81 0.16,-97.82 0.16,-145.12 79.57,-18.51 201.55,10.56 201.55,104.69 0,37.21 1.42,75.65 -38.62,102.37 -23.53,15.69 -48.97,26.49 -86.34,26.49zm-161.74 -1083.18l45.69 0c89.43,1.39 178.61,10.94 265.5,27.88 152.26,29.7 311.29,99.18 392.31,232.24 9.43,15.49 16.94,27.54 23.15,45.33 25.97,74.36 23.61,88.84 23.61,165.67 0,103.78 -61.49,180.78 -138.62,227.96 -14.91,9.12 -67.65,33.77 -87.12,33.77l0 4.03c47.4,0 169.08,76.68 206.37,124.06 25.6,32.52 45.73,64.69 61.32,103.83 58.3,146.51 22.58,306.47 -108.87,393.83 -28.84,19.18 -45.64,30.54 -80.59,44.32 -141.18,55.69 -279.64,70.62 -433.35,70.85l-5.56 0c-122.42,-0.19 -305.23,-18.03 -414.76,-54.88l-115.4 -41.76 -8.06 -165.1c0.01,-18 1.63,-37.6 -1.59,-54.78 -6.21,-33.2 -5.65,-204.58 -8.06,-217.45 -6.57,-35.16 -0.91,-77.01 -2.28,-114.49 -0.67,-18.38 -4.27,-27.75 -4.2,-52.19l-4.02 -277.52 0 -2.12c0.17,-42.03 5.61,-350.08 11.28,-385.57 8.62,-53.92 -34.72,-42.97 95.88,-73.35 93.94,-21.85 190.6,-33.05 287.37,-34.56zm117.4 648.29l-36.28 0 4 -165.12c-0.12,-24.5 4.06,-29.2 4.06,-52.32 55.13,-12.83 23.79,-12.08 84.65,-12.08 43.49,0 97.23,41.43 104.08,81.28 17.23,100.22 -61.53,148.24 -160.51,148.24z"/>
     <path class="fil0" d="M13186.31 2336.17l28.28 -297.92c1.82,-26.32 1.2,-50.29 4.21,-76.33l15.95 -189.43c0.94,-13.04 -0.07,-30.79 -0.07,-44.36 38.92,0 70.16,6.12 99.24,17.64 183.92,72.88 158.75,367.08 48.87,476.61 -9.46,9.43 -8.48,11.07 -16.08,20.18l-65.09 51.75c-26.3,15.91 -76.52,41.86 -115.31,41.86zm-447.43 -918.1c0,111.41 -0.08,222.82 0,334.22 0.01,31.84 -4.19,47.42 -4.05,76.5 0.13,28.18 -0.07,56.38 0.02,84.57l-8.13 161.02c-3.94,53.94 -1.82,106.75 -3.81,161.28 -0.65,17.82 -4.09,16.08 -4.33,35.94 -0.18,14.75 0.46,29.83 0.28,44.57l-12.3 197.11c-0.96,13.16 0.14,30.78 0.15,44.43 0,20.34 -3.07,20.98 -4.18,36.1 -0.98,13.52 0.38,30.55 0.21,44.51 -0.24,18.97 -4.18,33.25 -4.18,80.38 29.18,0 46.33,2.81 76.75,3.87 24.17,0.84 27.72,4.19 76.43,4.19 188.38,0 369.17,-18.43 529.32,-83.31 28.55,-11.56 51.27,-21.47 78,-34.82l73.15 -39.67c12.36,-8.18 21.97,-13.34 34.64,-21.77l122.31 -99.29c6.53,-7.78 4.69,-8.08 12.03,-16.17 31.67,-34.93 32.93,-34.36 63.99,-77.02l43.29 -69.5c22.2,-40.25 49.97,-113.79 61.54,-160 44.09,-176.21 36.8,-397.09 -63.67,-549.36l-30.73 -41.78c-26.26,-33.08 -60.69,-64.77 -95.13,-90.2 -9.28,-6.86 -11.45,-9.01 -20.87,-15.39 -108.24,-73.37 -284.88,-112.39 -412.9,-103.08l-74.08 6.53c-13.82,2.56 -24.67,0.31 -37.91,2.39 -45.56,7.15 -94.66,12.3 -141.5,19.72 -51.78,8.21 -143.86,28.14 -193.43,44.36 -18.72,6.13 -40.82,15 -60.91,19.67z"/>
     <path class="fil0" d="M11791.6 2066.37c0,-30.85 8.02,-56.89 16.58,-80.06 17.69,-47.89 51.98,-79.07 96.26,-101.16 42.67,-21.28 65.72,-20.1 112.89,-20.1 57.75,0 97.64,28.25 126.05,59.31 55.61,60.8 56.47,160.89 27.68,235.18 -12.23,31.55 -44.15,70.92 -68.99,88.12 -48.07,33.28 -103.91,48.07 -163.91,34.71 -12.25,-2.72 -28.72,-9.98 -37.8,-14.59 -28.11,-14.28 -39.77,-27.17 -57.36,-47.39 -28.13,-32.31 -51.4,-94.19 -51.4,-154.02zm-451.47 20.14c0,78.51 22.1,180.44 55.03,247.03 8.61,17.41 14.77,31.92 24.76,47.75 10.72,16.98 18.82,30.19 29.84,46.7 17.21,25.83 81.28,98.07 107.26,118.35l20.18 16.09c7.76,6.14 14.69,10.6 23.31,16.97 53.77,39.78 69.9,42.57 121.17,68.23 49.2,24.6 162.58,50.94 219.07,50.94 172.07,0 249.59,-13.15 391.09,-96.55 18.71,-11.02 31.51,-19.99 48.3,-32.29 42.58,-31.17 81.75,-69.73 115.85,-109.76 154.5,-181.36 202.01,-451.85 112.31,-673.88l-51.51 -89.48c-5.65,-7.41 -10.38,-13.93 -15.41,-20.85 -22.67,-31.17 -44.05,-46.86 -69.48,-71.53 -6.92,-6.71 -12.56,-9.99 -20.31,-15.95 -12.38,-9.51 -30.69,-21.95 -43.3,-29.23 -169.85,-98.21 -434.43,-115.28 -615.2,-54.93 -92.68,30.95 -184.8,74.91 -254.43,144.48 -27.06,27.03 -52.65,50.12 -76.01,81.12 -25.07,33.26 -43.56,62.12 -62.05,99.08 -38.27,76.46 -60.47,166.64 -60.47,257.71z"/>
     <path class="fil0" d="M10638.75 2295.9c-113.96,0 -189.46,-102.76 -189.46,-197.31 0,-52.23 3.1,-101.67 43.28,-142 58.33,-58.55 133,-85.65 218.81,-63.45 74.53,19.29 126.28,86.65 133.02,165.1 2.55,29.72 4.34,30.47 -0.88,63.7 -5.32,33.85 -26.27,76.22 -46.79,102.26 -36.27,46.07 -98.4,71.7 -157.98,71.7zm-640.93 -221.47c0,114.87 16.53,187.75 64.45,281.92 5.12,10.06 8.05,12.69 13.53,22.72 26.96,49.33 75.98,113.02 118.46,151.46 215.83,195.28 527.24,225.46 784.48,84.87 16.52,-9.02 32.56,-21.07 48.64,-31.95l128.41 -117.35c5.8,-6.38 4.22,-5.72 8.58,-11.56 90.77,-121.81 143.51,-243.83 143.51,-404.27 0,-102.11 -32.16,-230.49 -85.69,-300.97 -28.64,-37.72 -33.76,-45.05 -68.57,-76.46 -7.18,-6.48 -10.79,-12.08 -18.28,-17.97 -6.05,-4.75 -11.76,-8.68 -18.55,-13.7 -33.35,-24.62 -78.2,-50.89 -115.78,-65.53 -125.57,-48.94 -216.06,-56.9 -358.23,-56.9 -151.05,0 -305.99,50.02 -422.56,137.61 -125.64,94.39 -222.4,251.12 -222.4,418.08z"/>
     <path class="fil0" d="M6357.87 1804.64c0,110.07 46.74,213.36 121.95,276.83l36.84 27.62c7.99,5.84 11.4,7.46 19.9,12.34 57.48,32.95 103.94,49.58 172.24,57.45 64.28,7.41 122.41,-2.39 187.66,13.89 124.34,30.98 81.39,127.29 -34.72,127.29 -151.62,0 -230.88,-6.68 -372.49,-62.79 -26.47,-10.49 -60.68,-32.68 -83.01,-37.88l-36.28 406.7 199.01 75.03c49.54,16.53 173.14,49.8 224.24,49.8 153.96,0 253.79,-10.26 392.38,-79.16 10.07,-5.01 11.66,-6.51 20.39,-11.85 45.55,-27.86 38.71,-25.5 76,-56.96l32.24 -32.22c29.05,-34.48 45.61,-45.41 71.54,-97.65 69.1,-139.17 88.74,-324.59 -8.75,-454.33 -34.26,-45.58 -91.66,-85.3 -144.88,-104.94 -69.18,-25.51 -122.84,-33.1 -217.23,-32.65 -25.92,0.13 -33.35,-4.23 -56.35,-4.11 -34,0.18 -79.61,-6.57 -109.01,-19.96 -44.3,-20.17 -85.54,-104.8 157.31,-104.8 133.73,0 198.75,26.37 310.38,52.35 11.43,-49 13.6,-118.81 21,-168.29l23.35 -165.93c-24.24,-5.64 -45.1,-15.55 -70.11,-22.57 -26.27,-7.4 -49.54,-11.32 -75.01,-17.69l-117.17 -19.87c-42.86,-4.68 -180.33,-15.18 -218.2,-9.13 -54.39,8.7 -69.21,-2.1 -163.67,21.73 -110.27,27.84 -221.08,80.91 -290.33,173.06 -45.3,60.28 -69.22,122.55 -69.22,208.69z"/>
     <path class="fil0" d="M5382.38 2001.95l0 732.86c37.62,0 75.24,-0.02 112.87,0 39.32,0.02 66.8,-4.03 108.83,-4.03 217.7,0 447.87,-12.08 665.11,-12.08 0,-40.62 4.03,-65.22 4.03,-104.69 -0.02,-106.26 12.09,-218.7 12.09,-326.16l-435.34 -4.03 8.06 -136.91 310.38 -8.05 16.07 -257.78c0.03,-13.44 5.22,-27.43 -1.22,-30.75 -11.58,-5.97 -228.99,-3.81 -268.96,-5.26 -18.11,-0.66 -15.88,-4.19 -36.12,-4.19l7.94 -80.66c0.53,-17.41 2.87,-12.58 4.16,-28.05 139.37,0 296.86,-8.06 435.34,-8.06l32.25 -318.11c-69.97,0 -131.61,-8.01 -201.63,-7.98l-397.39 -21.79c-17.67,-3.29 -30.79,-2.38 -50.05,-2.37l-295.45 -18.31c-9.14,1.24 -6.61,4.09 -10.58,38.6l-4.13 100.57c-0.25,20.42 -4.32,24.49 -4.2,48.15 0.07,14.55 1.38,38.09 -0.78,51.57l-11.28 407.51z"/>
     <path class="fil0" d="M9026.36 2738.84c43,0 86,0 128.99,0 48.43,0 81.44,-4.03 128.99,-4.03 92.37,0 171.3,-4.03 262.02,-4.03l0 -563.74c30.79,0 44.93,-4.07 76.58,-4.02 27.54,0.04 57.6,1.15 84.81,0.16 26.84,-0.98 29.5,-4.19 80.46,-4.19l80.86 -3.79c56.32,-6.31 33.94,11.07 40.31,-44.29l7.97 -76.6c0.66,-20.91 1.43,-59.47 4.69,-79.88l7.26 -77.31 -378.91 0 0 -100.67 216.08 -9.63c18.11,-3.39 34.14,-2.51 54.02,-2.42l165.24 -8.08 16.06 -185.3c-0.11,-20.41 3.05,-20.92 4.16,-36.11 0.9,-12.46 -1.28,-27.75 0.18,-40.08 1.58,-13.55 3.79,-16.51 3.79,-36.48 -180.3,0 -374.73,8.05 -556.28,8.05l-350.69 -0.01c-39.02,-0.07 -44.84,-9.7 -44.43,28.1 0.55,51.69 -3.24,44.7 -4.1,68.39 -0.85,23.3 0.16,49.04 0.16,72.64 0.01,164.68 -16.13,382.27 -16.13,547.63 0,22.81 -0.06,45.64 0.01,68.46 0.09,29.24 -4.18,40.31 -4.05,68.44 0.21,44.65 2.86,99.84 -3.21,137.72 -4.95,30.93 -0.74,104.78 -0.73,140.21 0.01,23.8 -4.13,39.55 -4.11,68.37 0.02,24.16 0,48.33 0,72.49z"/>
     <path class="fil0" d="M7740.49 1836.85l0 817.43c0,26.78 4.03,34.85 4.03,60.4 18.83,0 37.68,0.07 56.51,0.09l161.16 -8.15c24.47,0.1 33.84,-3.52 52.24,-4.17 18.03,-0.67 39,1.49 56.66,0.21 22.01,-1.6 5.47,-4.24 52.34,-4.09 43.55,0.14 37.3,-3.6 56.43,-4.03 0,-24.13 1.69,-34.58 3.79,-52.58 1.02,-8.72 -0.21,-19.25 0.09,-28.11 0.58,-17.75 3.17,-12.55 4.24,-27.97l20.04 -273.93c1.12,-16.16 3.03,-7.9 4.15,-24.04l11.97 -165.22c1.07,-15.45 3.66,-10.17 4.22,-28l19.78 -217.81c1.02,-9.22 -0.44,-17.53 1.06,-27.14 1.59,-10.22 3.22,-12.07 3.22,-28.99 25.56,0 51.11,0.07 76.67,0.07 18.58,0.01 31.42,-4.1 76.51,-4.1 56.38,0 99.56,-4.03 153.17,-4.03 0,-13.07 -0.63,-27.57 -0.16,-40.41 0.65,-17.78 4.28,-18.62 4.27,-40.04 -0.01,-27.31 -2.06,-62.38 -0.14,-88.73l8.12 -169.06 -580.53 -3.95c-23.49,0.01 -36.45,-4.15 -64.42,-4.11l-137.05 0.01c-28.86,0.02 -44.63,-4.12 -68.45,-4.11 -96.4,0.03 -179.19,-3.94 -274.18,-3.94l-12.16 253.61c-2.12,29.15 2.3,63.64 0.13,92.74 -4.72,63.06 -16.45,35.73 128.92,36.18 63.57,0.19 113.15,-4.03 177.37,-4.03z"/>
    </g>
   </g>
   <g>
    <path class="fil0" d="M2040.42 3410.69c-328.27,0 -684.64,-136.78 -911.22,-362.74 -112.04,-111.71 -189.67,-212.87 -265.17,-361.52 -67.46,-132.82 -133.56,-339.93 -133.56,-498.89 0,-169.83 -4.39,-242.04 44.53,-411.93 25.36,-88.06 49.16,-152.91 86.46,-226.24 139.3,-273.81 363.14,-500.17 651.67,-618.64 428.11,-175.77 829.2,-141.17 1223.28,84.4 98.75,56.52 189.62,141.05 269.17,220.82 92.17,92.43 175.65,226.05 231.89,341.17 59.99,122.83 85.77,241.85 108.77,378.99 10.02,59.78 12.23,162.32 5.28,224.95 -10.27,92.4 5.71,68.85 -27.47,216.04 -82.68,366.81 -305.45,649.04 -627.11,840.39 -64.98,38.65 -153.85,77.22 -227.82,102.06 -46.26,15.54 -80.29,26.51 -131.4,37.58 -94.27,20.41 -185.78,33.56 -297.3,33.56zm-73.08 -2985.71l204.08 0c304.45,0 681.08,147.54 919.21,324.47 89.46,66.45 127.57,109.25 167.29,138.96l148.18 157.8c175.98,212.42 271.33,422.8 340.4,690.01 28.44,110.04 41.55,213.57 43.1,314.53l0 41.22c-2.89,187.44 -44.4,367.75 -100.15,566.62 -37.69,134.46 -120.78,331.15 -187.49,453.32l-531.54 919.41c-247.94,437.04 -507.31,885.65 -768.61,1316.24 -21.87,36.06 -95.04,171.38 -138.27,182.76 -5.72,-21.13 -19.28,-32.55 -32.42,-51.61l-278.25 -447.4c-21.66,-35.72 -38.78,-66.62 -59.64,-100.74 -40.39,-66.03 -78.39,-132.05 -119.59,-201.17l-646.19 -1117.86c-91.29,-148.23 -328.61,-563.4 -390.61,-731.69 -13.79,-37.46 -30.25,-79.52 -44.14,-116.02 -61.59,-161.84 -139.81,-472.37 -139.81,-659.86 0,-386.73 139.07,-762.72 383.5,-1057.76l92.38 -106.46c35,-39.19 70.51,-61.7 107.72,-98.92 142.22,-142.21 468,-309.06 675.45,-359.68 178.65,-43.59 250.26,-54.06 355.4,-56.17z"/>
    <path class="fil0" d="M1262.16 1655.74c0,88.93 -2.9,176.01 45.97,250.96 25.67,39.38 68.36,89.52 131.26,90.9l0 904.07c0,116.31 139.26,114.12 170.18,38.64 16.48,-40.24 7.04,-877.88 7.04,-942.71 35.49,-2.9 49.06,-16.83 72.91,-34.47 91.51,-67.7 88.91,-195.73 88.91,-307.39 0,-140.42 -114.66,-364.57 -255.21,-369.76 -126.1,-4.66 -261.06,214.82 -261.06,369.76z"/>
    <path class="fil0" d="M1870.9 1344.24l0 509.02c0,61.29 56.56,129.15 115.58,129.15l46.24 0 0 911.67c0,134.37 169.52,119.9 169.52,22.79l0 -934.46c62.59,0 36.18,5.34 87.17,-20.41 56.99,-28.79 66.94,-96.29 66.94,-161.92l0 -448.24c0,-82.19 -115.58,-82.19 -115.58,0l0 341.88c-58.26,0 -43.11,-4.81 -77.06,-7.6l0 -372.26c-30.98,-20.46 -9.37,-22.79 -61.64,-22.79 -60.2,0 -46.24,112.03 -46.24,174.73 0,73.44 0,146.88 0,220.32 -33.94,2.79 -18.8,7.6 -77.05,7.6l0 -349.48c0,-60.38 -63.56,-65.24 -92.69,-38.2 -11.39,10.57 -15.19,16.49 -15.19,38.2z"/>
    <path class="fil0" d="M2525.88 1405.03l0 1511.84c0,80.16 171.03,142.68 169.71,-52.99l-0.19 -661.15c75.17,-6.16 107.88,-90.6 107.88,-167.13l0 -569.8c0,-255.07 -277.4,-191.01 -277.4,-60.77z"/>
   </g>
   <g>
    <path class="fil1" d="M1649.88 4065.84l-82.98 0 0 -106.68 114.59 0c25.31,0 43.46,24.37 43.46,51.36 0,44.14 -31.22,55.32 -75.07,55.32zm-256.83 -470.19l309.01 0c40.77,1.22 75.71,6.25 109.66,23.86 21.21,11 44.54,31.74 56.86,53.77 12.71,22.71 20.26,56.25 18.45,92.32 -4.74,94.71 -85.75,118.42 -94.91,126.37 31.64,7.39 54.04,23.65 72.45,46.1 62.53,76.2 42.42,186.05 -35.98,235.35 -49.81,31.33 -121.68,30.71 -202.42,30.71 -77.71,0 -155.41,0 -233.12,0l0 -608.48zm256.83 241.01l-82.98 0 0 -102.72c61.43,0 146.19,-15.89 146.19,47.4 0,39.67 -25.68,55.32 -63.21,55.32z"/>
    <path class="fil1" d="M2432.21 3595.65l-0.46 585.22c0.12,15.4 0.52,21.27 9.74,23.26l62.38 0 3.41 0c32.92,0 65.85,0 98.78,0l0 -237.07 181.75 0 0 -130.4 -181.75 0 0 -102.72c63.22,0 126.44,-0.1 189.66,0 45.39,0.07 54.1,8.95 55.31,-18.7l0 -26.52c-0.33,-29.93 -0.02,-60.06 0,-89.99l0 -3.08 -418.82 0z"/>
    <path class="fil1" d="M1958.07 4192.27c0,9.11 2.75,11.86 11.85,11.86l162 0 0 -237.07 181.75 0 0 -130.4 -181.75 0 0 -102.72 233.12 0c9.1,0 11.85,-2.75 11.85,-11.86l0 -126.43 -418.82 0 0 596.62z"/>
   </g>
  </g>
 </g>
</svg>
